<svg id="svg" version="1.1" xmlns="http://www.w3.org/2000/svg" xmlns:xlink="http://www.w3.org/1999/xlink" width="400" height="57.142857142857146" viewBox="0, 0, 400,57.142857142857146"><g id="svgg"><path id="path0" d="" stroke="none" fill="#040404" fill-rule="evenodd"></path><path id="path1" d="M155.250 0.671 C 154.883 0.750,153.668 0.818,152.550 0.824 C 150.826 0.832,150.493 0.876,150.360 1.113 C 150.247 1.316,149.911 1.412,149.143 1.463 C 148.474 1.507,148.011 1.624,147.888 1.780 C 147.781 1.917,147.368 2.070,146.971 2.122 C 146.575 2.173,146.190 2.317,146.117 2.441 C 146.043 2.565,145.793 2.667,145.560 2.667 C 145.327 2.667,144.945 2.817,144.712 3.000 C 144.479 3.183,144.145 3.333,143.971 3.333 C 143.796 3.333,143.492 3.483,143.295 3.667 C 143.098 3.850,142.809 4.000,142.653 4.000 C 142.497 4.000,142.329 4.105,142.279 4.234 C 142.230 4.363,141.965 4.518,141.692 4.578 C 141.418 4.638,141.153 4.795,141.102 4.927 C 141.052 5.059,140.907 5.167,140.781 5.167 C 140.655 5.167,140.416 5.317,140.250 5.500 C 140.084 5.683,139.810 5.833,139.641 5.833 C 139.472 5.833,139.333 5.948,139.333 6.089 C 139.333 6.229,139.202 6.392,139.042 6.451 C 138.881 6.511,138.712 6.613,138.667 6.680 C 138.621 6.747,138.116 7.174,137.545 7.631 C 136.973 8.088,136.261 8.752,135.961 9.107 C 135.276 9.921,134.495 10.810,134.154 11.167 C 134.009 11.318,133.843 11.568,133.784 11.721 C 133.725 11.874,133.562 12.000,133.422 12.000 C 133.282 12.000,133.167 12.138,133.167 12.308 C 133.167 12.477,133.017 12.751,132.833 12.917 C 132.650 13.083,132.500 13.357,132.500 13.526 C 132.500 13.695,132.387 13.833,132.250 13.833 C 132.111 13.833,132.000 13.981,132.000 14.167 C 132.000 14.350,131.850 14.650,131.667 14.833 C 131.483 15.017,131.333 15.317,131.333 15.502 C 131.333 15.686,131.183 15.965,131.000 16.122 C 130.817 16.279,130.667 16.567,130.667 16.762 C 130.667 16.956,130.517 17.289,130.333 17.500 C 130.150 17.711,130.000 18.089,130.000 18.338 C 130.000 18.588,129.887 18.886,129.750 19.000 C 129.612 19.114,129.500 19.375,129.500 19.579 C 129.500 20.086,129.168 21.000,128.984 21.000 C 128.901 21.000,128.833 21.440,128.833 21.978 C 128.833 22.703,128.747 23.064,128.500 23.379 C 128.023 23.986,127.979 33.289,128.452 33.761 C 128.644 33.954,128.760 34.404,128.807 35.146 C 128.851 35.840,128.965 36.310,129.116 36.420 C 129.248 36.516,129.397 36.930,129.447 37.339 C 129.498 37.748,129.630 38.158,129.742 38.250 C 129.853 38.342,129.991 38.707,130.049 39.062 C 130.106 39.417,130.268 39.836,130.410 39.992 C 130.551 40.148,130.667 40.427,130.667 40.612 C 130.667 40.797,130.817 41.084,131.000 41.250 C 131.183 41.416,131.333 41.724,131.333 41.934 C 131.333 42.145,131.427 42.377,131.542 42.450 C 131.905 42.683,132.500 43.640,132.500 43.993 C 132.500 44.193,132.609 44.333,132.766 44.333 C 132.912 44.333,133.070 44.483,133.118 44.667 C 133.166 44.850,133.275 45.000,133.361 45.000 C 133.446 45.000,133.606 45.210,133.716 45.466 C 133.923 45.946,134.201 46.320,134.708 46.799 C 134.869 46.950,135.000 47.170,135.000 47.287 C 135.000 47.404,135.120 47.500,135.266 47.500 C 135.412 47.500,135.570 47.650,135.618 47.833 C 135.666 48.017,135.768 48.167,135.844 48.167 C 136.059 48.167,136.833 48.932,136.833 49.144 C 136.833 49.248,136.943 49.333,137.077 49.333 C 137.212 49.333,137.402 49.483,137.500 49.667 C 137.598 49.850,137.788 50.000,137.923 50.000 C 138.057 50.000,138.167 50.112,138.167 50.250 C 138.167 50.387,138.279 50.500,138.417 50.500 C 138.554 50.500,138.817 50.650,139.000 50.833 C 139.183 51.017,139.408 51.167,139.499 51.167 C 139.589 51.167,139.758 51.317,139.872 51.500 C 139.987 51.683,140.177 51.833,140.295 51.833 C 140.414 51.833,140.554 51.946,140.606 52.083 C 140.659 52.221,140.844 52.333,141.018 52.333 C 141.191 52.333,141.483 52.483,141.667 52.667 C 141.850 52.850,142.101 53.000,142.224 53.000 C 142.347 53.000,142.584 53.150,142.750 53.333 C 142.916 53.517,143.216 53.667,143.417 53.667 C 143.617 53.667,143.917 53.817,144.083 54.000 C 144.249 54.183,144.556 54.333,144.764 54.333 C 144.972 54.333,145.255 54.446,145.393 54.583 C 145.530 54.721,145.795 54.833,145.980 54.833 C 146.380 54.833,147.167 55.169,147.167 55.339 C 147.167 55.405,147.588 55.494,148.104 55.536 C 148.743 55.589,149.090 55.702,149.195 55.890 C 149.316 56.107,149.604 56.167,150.519 56.167 C 151.756 56.167,152.333 56.354,152.333 56.756 C 152.333 57.233,159.875 57.106,160.085 56.625 C 160.233 56.288,160.385 56.245,161.578 56.201 C 162.640 56.161,162.967 56.086,163.210 55.826 C 163.416 55.604,163.733 55.500,164.202 55.500 C 164.588 55.500,165.015 55.387,165.175 55.243 C 165.331 55.101,165.749 54.940,166.104 54.884 C 166.459 54.828,166.810 54.682,166.883 54.558 C 166.957 54.434,167.221 54.333,167.471 54.333 C 167.721 54.333,168.054 54.183,168.211 54.000 C 168.368 53.817,168.647 53.667,168.832 53.667 C 169.016 53.667,169.317 53.517,169.500 53.333 C 169.683 53.150,169.983 53.000,170.167 53.000 C 170.350 53.000,170.500 52.929,170.500 52.842 C 170.500 52.686,170.937 52.409,171.938 51.929 C 172.225 51.791,172.504 51.564,172.558 51.423 C 172.612 51.282,172.771 51.167,172.911 51.167 C 173.052 51.167,173.167 51.094,173.167 51.004 C 173.167 50.915,173.373 50.735,173.625 50.604 C 173.877 50.472,174.308 50.135,174.583 49.854 C 174.858 49.573,175.168 49.341,175.272 49.338 C 175.376 49.335,175.500 49.183,175.548 49.000 C 175.596 48.817,175.755 48.667,175.901 48.667 C 176.047 48.667,176.167 48.592,176.167 48.501 C 176.167 48.410,176.546 47.948,177.009 47.474 C 177.473 47.001,177.962 46.401,178.097 46.140 C 178.232 45.880,178.415 45.667,178.504 45.667 C 178.594 45.667,178.667 45.558,178.667 45.425 C 178.667 45.292,178.760 45.123,178.875 45.050 C 179.164 44.865,179.762 43.987,179.904 43.538 C 179.969 43.334,180.130 43.167,180.261 43.167 C 180.405 43.167,180.500 43.000,180.500 42.748 C 180.500 42.518,180.650 42.202,180.833 42.045 C 181.017 41.888,181.167 41.598,181.167 41.400 C 181.167 41.202,181.274 40.951,181.406 40.842 C 181.538 40.733,181.693 40.424,181.752 40.156 C 181.811 39.888,181.955 39.612,182.072 39.543 C 182.189 39.473,182.327 39.085,182.380 38.680 C 182.434 38.265,182.590 37.879,182.738 37.797 C 182.914 37.698,183.000 37.411,183.000 36.920 C 183.000 36.497,183.104 36.087,183.247 35.943 C 183.396 35.794,183.537 35.207,183.600 34.473 C 183.659 33.800,183.810 33.084,183.936 32.881 C 184.269 32.348,184.273 24.629,183.941 24.353 C 183.806 24.241,183.676 23.657,183.619 22.901 C 183.558 22.099,183.427 21.529,183.262 21.346 C 183.112 21.181,183.000 20.760,183.000 20.362 C 183.000 19.889,182.893 19.560,182.667 19.333 C 182.459 19.126,182.333 18.778,182.333 18.411 C 182.333 18.041,182.240 17.787,182.082 17.727 C 181.944 17.674,181.785 17.338,181.728 16.982 C 181.666 16.594,181.532 16.333,181.395 16.333 C 181.262 16.333,181.167 16.158,181.167 15.915 C 181.167 15.685,181.017 15.368,180.833 15.211 C 180.650 15.054,180.500 14.830,180.500 14.713 C 180.500 14.596,180.350 14.350,180.167 14.167 C 179.983 13.983,179.833 13.721,179.833 13.583 C 179.833 13.446,179.702 13.192,179.542 13.020 C 179.070 12.513,178.667 11.943,178.667 11.785 C 178.667 11.704,178.254 11.229,177.750 10.728 C 177.246 10.228,176.833 9.785,176.833 9.743 C 176.833 9.588,174.882 7.721,174.612 7.617 C 174.459 7.559,174.333 7.396,174.333 7.255 C 174.333 7.115,174.218 7.000,174.078 7.000 C 173.938 7.000,173.780 6.887,173.727 6.750 C 173.674 6.612,173.529 6.500,173.405 6.500 C 173.280 6.500,173.103 6.359,173.010 6.186 C 172.918 6.013,172.653 5.824,172.421 5.766 C 172.189 5.708,172.000 5.585,172.000 5.493 C 172.000 5.401,171.813 5.254,171.583 5.167 C 171.354 5.080,171.167 4.937,171.167 4.851 C 171.167 4.764,170.937 4.643,170.655 4.581 C 170.374 4.519,170.104 4.363,170.054 4.234 C 170.005 4.105,169.822 4.000,169.649 4.000 C 169.475 4.000,169.183 3.850,169.000 3.667 C 168.817 3.483,168.491 3.333,168.276 3.333 C 168.061 3.333,167.749 3.183,167.583 3.000 C 167.417 2.817,167.072 2.667,166.816 2.667 C 166.560 2.667,166.290 2.565,166.217 2.441 C 166.143 2.317,165.748 2.172,165.339 2.119 C 164.930 2.066,164.517 1.915,164.422 1.785 C 164.320 1.647,163.840 1.514,163.266 1.467 C 162.655 1.416,162.213 1.289,162.097 1.131 C 161.950 0.929,161.374 0.856,159.331 0.782 C 157.911 0.730,156.563 0.652,156.333 0.608 C 156.104 0.564,155.617 0.592,155.250 0.671 M0.667 2.250 C 0.553 2.387,0.356 2.500,0.230 2.500 C 0.036 2.500,0.000 6.550,0.000 28.649 L 0.000 54.797 0.417 54.902 C 0.646 54.959,0.833 55.117,0.833 55.253 C 0.833 55.627,9.630 55.624,9.773 55.250 C 9.826 55.112,9.964 55.000,10.080 55.000 C 10.197 55.000,10.583 54.654,10.938 54.231 C 11.293 53.808,11.715 53.321,11.875 53.148 C 12.035 52.975,12.167 52.763,12.167 52.678 C 12.167 52.592,12.317 52.475,12.500 52.417 C 12.683 52.358,12.833 52.244,12.833 52.163 C 12.833 51.980,13.521 50.955,13.893 50.583 C 14.043 50.433,14.167 50.240,14.167 50.155 C 14.167 50.070,14.279 50.000,14.417 50.000 C 14.554 50.000,14.667 49.890,14.667 49.756 C 14.667 49.622,14.817 49.431,15.000 49.333 C 15.183 49.235,15.333 49.080,15.333 48.987 C 15.333 48.758,15.970 47.883,16.625 47.211 C 16.923 46.906,17.167 46.600,17.167 46.531 C 17.167 46.463,17.298 46.286,17.458 46.138 C 17.619 45.989,17.971 45.560,18.240 45.184 C 18.510 44.808,18.791 44.500,18.865 44.500 C 18.939 44.500,19.000 44.390,19.000 44.256 C 19.000 44.122,19.150 43.931,19.333 43.833 C 19.517 43.735,19.667 43.583,19.667 43.494 C 19.667 43.406,19.798 43.199,19.958 43.034 C 20.119 42.870,20.400 42.521,20.583 42.259 C 20.767 41.997,21.035 41.657,21.179 41.504 C 21.324 41.350,21.490 41.099,21.549 40.946 C 21.608 40.792,21.771 40.667,21.911 40.667 C 22.056 40.667,22.167 40.522,22.167 40.333 C 22.167 40.148,22.278 40.000,22.417 40.000 C 22.554 40.000,22.667 39.917,22.667 39.816 C 22.667 39.641,23.206 38.896,23.751 38.319 C 23.888 38.174,24.000 37.973,24.000 37.872 C 24.000 37.772,24.150 37.642,24.333 37.583 C 24.517 37.525,24.667 37.368,24.667 37.234 C 24.667 37.099,24.779 36.946,24.917 36.894 C 25.054 36.841,25.167 36.724,25.167 36.634 C 25.167 36.441,25.666 35.781,26.542 34.815 C 26.885 34.436,27.167 34.060,27.167 33.979 C 27.167 33.899,27.279 33.833,27.417 33.833 C 27.555 33.833,27.667 33.685,27.667 33.501 C 27.667 33.319,27.817 33.076,28.000 32.961 C 28.183 32.847,28.333 32.659,28.333 32.545 C 28.333 32.430,28.483 32.242,28.667 32.128 C 28.850 32.013,29.000 31.823,29.000 31.705 C 29.000 31.586,29.110 31.447,29.244 31.396 C 29.378 31.345,29.533 31.159,29.588 30.985 C 29.644 30.810,29.797 30.667,29.928 30.667 C 30.059 30.667,30.167 30.554,30.167 30.417 C 30.167 30.279,30.317 30.017,30.500 29.833 C 30.683 29.650,30.833 29.428,30.833 29.339 C 30.833 29.251,30.983 29.098,31.167 29.000 C 31.350 28.902,31.500 28.712,31.500 28.577 C 31.500 28.443,31.613 28.333,31.750 28.333 C 31.887 28.333,32.000 28.223,32.000 28.089 C 32.000 27.955,32.150 27.765,32.333 27.667 C 32.517 27.569,32.667 27.378,32.667 27.243 C 32.667 27.107,32.817 26.868,33.000 26.711 C 33.183 26.554,33.333 26.333,33.333 26.219 C 33.333 26.105,33.483 25.931,33.667 25.833 C 33.850 25.735,34.000 25.545,34.000 25.411 C 34.000 25.277,34.104 25.167,34.231 25.167 C 34.357 25.167,34.500 25.017,34.548 24.833 C 34.596 24.650,34.755 24.500,34.901 24.500 C 35.048 24.500,35.167 24.363,35.167 24.192 C 35.167 24.023,35.317 23.749,35.500 23.583 C 35.683 23.417,35.833 23.221,35.833 23.146 C 35.833 23.072,36.096 22.749,36.417 22.428 C 36.738 22.107,37.000 21.767,37.000 21.672 C 37.000 21.577,37.071 21.500,37.158 21.500 C 37.245 21.500,37.589 21.087,37.924 20.583 C 38.259 20.079,38.595 19.667,38.672 19.667 C 38.748 19.667,38.858 19.517,38.917 19.333 C 38.975 19.150,39.130 19.000,39.261 19.000 C 39.393 19.000,39.500 18.850,39.500 18.667 C 39.500 18.483,39.603 18.333,39.730 18.333 C 39.856 18.333,40.052 18.111,40.164 17.839 C 40.277 17.568,40.729 16.963,41.170 16.496 C 41.611 16.029,42.013 15.539,42.064 15.407 C 42.115 15.275,42.224 15.167,42.308 15.167 C 42.391 15.167,42.553 14.942,42.667 14.667 C 42.781 14.392,42.942 14.167,43.025 14.167 C 43.109 14.167,43.227 14.035,43.289 13.875 C 43.350 13.715,43.647 13.349,43.950 13.064 C 44.252 12.778,44.500 12.459,44.500 12.355 C 44.500 12.252,44.573 12.167,44.662 12.167 C 44.752 12.167,44.934 11.960,45.067 11.708 C 45.200 11.456,45.529 11.013,45.797 10.724 C 46.066 10.435,46.331 10.079,46.387 9.933 C 46.444 9.786,46.604 9.667,46.745 9.667 C 46.885 9.667,47.000 9.554,47.000 9.417 C 47.000 9.279,47.131 9.021,47.292 8.844 C 47.452 8.666,47.733 8.320,47.917 8.074 C 48.100 7.828,48.381 7.486,48.542 7.314 C 48.702 7.141,48.833 6.933,48.833 6.851 C 48.833 6.769,48.937 6.663,49.063 6.614 C 49.189 6.566,49.539 6.145,49.841 5.680 C 50.143 5.214,50.447 4.833,50.517 4.833 C 50.587 4.833,50.692 4.683,50.750 4.500 C 50.808 4.317,50.963 4.167,51.095 4.167 C 51.226 4.167,51.333 4.017,51.333 3.833 C 51.333 3.650,51.441 3.500,51.572 3.500 C 51.703 3.500,51.856 3.357,51.912 3.182 C 51.967 3.007,52.122 2.822,52.256 2.771 C 52.390 2.719,52.500 2.520,52.500 2.327 C 52.500 1.977,52.498 1.977,46.779 2.030 L 41.057 2.083 40.570 2.583 C 40.302 2.858,39.867 3.402,39.602 3.792 C 39.338 4.181,39.062 4.500,38.989 4.500 C 38.916 4.500,38.808 4.650,38.750 4.833 C 38.692 5.017,38.537 5.167,38.405 5.167 C 38.274 5.167,38.167 5.276,38.167 5.409 C 38.167 5.542,37.988 5.851,37.769 6.095 C 37.061 6.884,36.893 7.104,36.784 7.388 C 36.725 7.541,36.605 7.667,36.516 7.667 C 36.428 7.667,36.308 7.817,36.250 8.000 C 36.192 8.183,36.037 8.333,35.905 8.333 C 35.774 8.333,35.667 8.416,35.667 8.518 C 35.667 8.692,35.127 9.437,34.582 10.014 C 34.445 10.159,34.333 10.333,34.333 10.400 C 34.333 10.467,34.071 10.770,33.750 11.073 C 33.429 11.375,33.167 11.708,33.167 11.811 C 33.167 11.915,33.108 12.000,33.036 12.000 C 32.964 12.000,32.764 12.244,32.591 12.542 C 32.418 12.840,32.176 13.143,32.055 13.217 C 31.933 13.290,31.833 13.459,31.833 13.592 C 31.833 13.725,31.721 13.833,31.583 13.833 C 31.446 13.833,31.333 13.953,31.333 14.099 C 31.333 14.245,31.183 14.404,31.000 14.452 C 30.817 14.500,30.667 14.674,30.667 14.839 C 30.667 15.004,30.610 15.164,30.542 15.194 C 30.473 15.225,30.120 15.644,29.757 16.125 C 29.395 16.606,29.039 17.000,28.966 17.000 C 28.893 17.000,28.833 17.107,28.833 17.239 C 28.833 17.370,28.683 17.525,28.500 17.583 C 28.317 17.642,28.167 17.756,28.167 17.837 C 28.167 18.020,27.479 19.045,27.107 19.417 C 26.957 19.567,26.833 19.760,26.833 19.845 C 26.833 19.930,26.721 20.000,26.583 20.000 C 26.446 20.000,26.333 20.109,26.333 20.242 C 26.333 20.375,26.235 20.543,26.115 20.617 C 25.996 20.690,25.645 21.144,25.337 21.625 C 25.029 22.106,24.720 22.500,24.650 22.500 C 24.580 22.500,24.475 22.650,24.417 22.833 C 24.358 23.017,24.203 23.167,24.072 23.167 C 23.941 23.167,23.833 23.254,23.833 23.361 C 23.833 23.468,23.721 23.674,23.584 23.819 C 23.134 24.296,22.500 25.129,22.500 25.244 C 22.500 25.305,22.238 25.603,21.917 25.906 C 21.596 26.208,21.333 26.503,21.333 26.561 C 21.333 26.619,21.202 26.801,21.042 26.966 C 20.881 27.130,20.600 27.479,20.417 27.741 C 20.233 28.003,19.965 28.343,19.821 28.496 C 19.676 28.650,19.510 28.901,19.451 29.054 C 19.392 29.208,19.229 29.333,19.089 29.333 C 18.944 29.333,18.833 29.478,18.833 29.667 C 18.833 29.852,18.722 30.000,18.583 30.000 C 18.446 30.000,18.333 30.083,18.333 30.184 C 18.333 30.355,17.873 31.005,17.256 31.708 C 17.115 31.869,17.000 32.070,17.000 32.155 C 17.000 32.241,16.850 32.358,16.667 32.417 C 16.483 32.475,16.333 32.632,16.333 32.766 C 16.333 32.901,16.221 33.054,16.083 33.106 C 15.946 33.159,15.833 33.276,15.833 33.366 C 15.833 33.559,15.334 34.219,14.458 35.185 C 14.115 35.564,13.833 35.940,13.833 36.021 C 13.833 36.101,13.721 36.167,13.583 36.167 C 13.446 36.167,13.333 36.298,13.333 36.458 C 13.333 36.619,13.033 37.078,12.667 37.479 C 12.300 37.881,12.000 38.277,12.000 38.360 C 12.000 38.443,11.890 38.553,11.756 38.604 C 11.622 38.655,11.467 38.841,11.412 39.015 C 11.356 39.190,11.211 39.333,11.090 39.333 C 10.968 39.333,10.826 39.446,10.773 39.583 C 10.646 39.915,9.896 39.905,9.768 39.570 C 9.712 39.425,9.667 30.958,9.667 20.756 L 9.667 2.206 9.292 2.105 C 8.397 1.865,0.881 1.992,0.667 2.250 M71.917 2.124 C 71.448 2.160,71.029 2.287,70.958 2.414 C 70.888 2.539,70.607 2.690,70.332 2.750 C 70.058 2.810,69.833 2.966,69.833 3.097 C 69.833 3.227,69.683 3.333,69.500 3.333 C 69.278 3.333,69.167 3.444,69.167 3.667 C 69.167 3.850,69.094 4.000,69.004 4.000 C 68.915 4.000,68.733 4.206,68.600 4.458 C 68.466 4.710,68.138 5.153,67.869 5.442 C 67.601 5.732,67.335 6.088,67.279 6.234 C 67.223 6.380,67.062 6.500,66.922 6.500 C 66.782 6.500,66.667 6.572,66.667 6.659 C 66.667 6.851,65.990 7.867,65.607 8.250 C 65.457 8.401,65.333 8.593,65.333 8.679 C 65.333 8.764,65.221 8.833,65.083 8.833 C 64.944 8.833,64.833 8.981,64.833 9.167 C 64.833 9.350,64.740 9.502,64.625 9.503 C 64.510 9.505,64.163 9.918,63.854 10.420 C 63.544 10.922,63.230 11.333,63.157 11.333 C 63.083 11.333,62.975 11.483,62.917 11.667 C 62.858 11.850,62.703 12.000,62.572 12.000 C 62.441 12.000,62.333 12.087,62.333 12.194 C 62.333 12.301,62.221 12.507,62.084 12.653 C 61.643 13.120,61.000 13.962,61.000 14.071 C 61.000 14.130,60.737 14.440,60.417 14.761 C 60.096 15.082,59.833 15.417,59.833 15.506 C 59.833 15.594,59.771 15.667,59.694 15.667 C 59.618 15.667,59.271 16.079,58.924 16.583 C 58.577 17.087,58.227 17.500,58.146 17.500 C 58.066 17.500,58.000 17.610,58.000 17.744 C 58.000 17.878,57.850 18.069,57.667 18.167 C 57.483 18.265,57.333 18.455,57.333 18.589 C 57.333 18.723,57.221 18.833,57.083 18.833 C 56.946 18.833,56.833 18.927,56.833 19.042 C 56.833 19.233,56.425 19.805,55.762 20.542 C 55.618 20.702,55.500 20.881,55.500 20.939 C 55.500 20.997,55.237 21.292,54.917 21.594 C 54.596 21.897,54.333 22.195,54.333 22.256 C 54.333 22.371,53.699 23.204,53.249 23.681 C 53.112 23.826,53.000 24.032,53.000 24.139 C 53.000 24.246,52.893 24.333,52.761 24.333 C 52.630 24.333,52.475 24.483,52.417 24.667 C 52.358 24.850,52.203 25.000,52.072 25.000 C 51.941 25.000,51.833 25.138,51.833 25.308 C 51.833 25.477,51.685 25.749,51.504 25.913 C 51.323 26.077,51.131 26.351,51.076 26.522 C 51.022 26.693,50.870 26.833,50.739 26.833 C 50.607 26.833,50.500 26.948,50.500 27.089 C 50.500 27.229,50.390 27.386,50.256 27.437 C 50.122 27.489,49.967 27.674,49.912 27.849 C 49.856 28.024,49.703 28.167,49.572 28.167 C 49.441 28.167,49.333 28.279,49.333 28.417 C 49.333 28.554,49.183 28.817,49.000 29.000 C 48.817 29.183,48.667 29.408,48.667 29.499 C 48.667 29.589,48.517 29.758,48.333 29.872 C 48.150 29.987,48.000 30.140,48.000 30.212 C 48.000 30.285,47.756 30.589,47.458 30.887 C 47.160 31.185,46.825 31.633,46.712 31.881 C 46.599 32.130,46.431 32.333,46.337 32.333 C 46.243 32.333,46.167 32.443,46.167 32.577 C 46.167 32.712,46.017 32.902,45.833 33.000 C 45.650 33.098,45.500 33.288,45.500 33.423 C 45.500 33.557,45.387 33.667,45.250 33.667 C 45.112 33.667,45.000 33.786,45.000 33.932 C 45.000 34.078,44.850 34.237,44.667 34.285 C 44.481 34.333,44.333 34.512,44.333 34.688 C 44.333 34.861,44.183 35.132,44.000 35.289 C 43.817 35.446,43.667 35.652,43.667 35.747 C 43.667 35.841,43.404 36.160,43.083 36.454 C 42.762 36.749,42.500 37.064,42.500 37.156 C 42.500 37.247,42.350 37.402,42.167 37.500 C 41.983 37.598,41.833 37.770,41.833 37.881 C 41.832 37.992,41.581 38.357,41.274 38.691 C 40.967 39.025,40.670 39.419,40.613 39.566 C 40.557 39.713,40.396 39.833,40.255 39.833 C 40.111 39.833,40.000 39.978,40.000 40.167 C 40.000 40.350,39.895 40.500,39.766 40.500 C 39.638 40.500,39.457 40.706,39.366 40.958 C 39.274 41.210,38.977 41.653,38.707 41.942 C 38.436 42.232,38.169 42.588,38.113 42.734 C 38.056 42.880,37.896 43.000,37.755 43.000 C 37.615 43.000,37.500 43.115,37.500 43.255 C 37.500 43.396,37.394 43.551,37.265 43.601 C 37.136 43.650,36.942 43.905,36.833 44.167 C 36.725 44.428,36.531 44.683,36.401 44.733 C 36.272 44.782,36.167 44.903,36.167 45.000 C 36.167 45.098,35.904 45.440,35.583 45.761 C 35.262 46.082,35.000 46.413,35.000 46.497 C 35.000 46.581,34.902 46.710,34.783 46.783 C 34.664 46.857,34.345 47.270,34.075 47.702 C 33.804 48.134,33.498 48.491,33.394 48.494 C 33.291 48.497,33.166 48.650,33.118 48.833 C 33.070 49.017,32.912 49.167,32.766 49.167 C 32.611 49.167,32.500 49.306,32.500 49.500 C 32.500 49.683,32.438 49.833,32.361 49.833 C 32.285 49.833,31.976 50.214,31.674 50.680 C 31.373 51.145,31.023 51.566,30.896 51.614 C 30.770 51.663,30.667 51.804,30.667 51.929 C 30.667 52.053,30.517 52.235,30.333 52.333 C 30.150 52.431,30.000 52.584,30.000 52.673 C 30.000 52.761,29.869 52.983,29.708 53.167 C 29.548 53.350,29.285 53.650,29.125 53.833 C 28.965 54.017,28.833 54.239,28.833 54.327 C 28.833 54.416,28.683 54.569,28.500 54.667 C 28.317 54.765,28.167 54.992,28.167 55.173 C 28.167 55.617,39.018 55.692,39.486 55.251 C 40.622 54.180,40.833 53.956,40.833 53.821 C 40.833 53.736,40.946 53.667,41.083 53.667 C 41.221 53.667,41.333 53.558,41.333 53.426 C 41.333 53.294,41.466 53.088,41.628 52.968 C 41.789 52.848,42.013 52.544,42.124 52.292 C 42.235 52.040,42.403 51.833,42.496 51.833 C 42.590 51.833,42.667 51.739,42.667 51.624 C 42.667 51.509,42.929 51.173,43.250 50.879 C 43.571 50.585,43.833 50.264,43.833 50.167 C 43.833 50.069,43.939 49.949,44.068 49.899 C 44.197 49.850,44.392 49.595,44.500 49.333 C 44.608 49.072,44.803 48.817,44.932 48.767 C 45.061 48.718,45.167 48.562,45.167 48.422 C 45.167 48.282,45.270 48.167,45.397 48.167 C 45.524 48.167,45.667 48.017,45.715 47.833 C 45.763 47.650,45.922 47.500,46.068 47.500 C 46.218 47.500,46.333 47.362,46.333 47.181 C 46.333 47.005,46.390 46.836,46.458 46.806 C 46.527 46.775,46.880 46.356,47.243 45.875 C 47.605 45.394,47.961 45.000,48.034 45.000 C 48.107 45.000,48.167 44.880,48.167 44.734 C 48.167 44.588,48.317 44.430,48.500 44.382 C 48.683 44.334,48.833 44.232,48.833 44.155 C 48.833 43.897,49.778 42.598,50.375 42.035 C 50.535 41.883,50.667 41.668,50.667 41.558 C 50.667 41.447,50.817 41.308,51.000 41.250 C 51.183 41.192,51.333 41.078,51.333 40.996 C 51.333 40.814,52.021 39.789,52.393 39.417 C 52.543 39.266,52.667 39.073,52.667 38.988 C 52.667 38.903,52.779 38.833,52.917 38.833 C 53.054 38.833,53.167 38.723,53.167 38.589 C 53.167 38.455,53.317 38.265,53.500 38.167 C 53.683 38.069,53.836 37.897,53.840 37.786 C 53.862 37.067,55.500 35.981,55.500 36.684 C 55.500 36.766,55.615 36.833,55.755 36.833 C 55.896 36.833,56.060 36.963,56.121 37.121 C 56.182 37.280,56.479 37.657,56.782 37.960 C 57.085 38.263,57.333 38.572,57.333 38.646 C 57.333 38.721,57.483 38.917,57.667 39.083 C 57.850 39.249,58.000 39.515,58.000 39.673 C 58.000 39.831,58.150 40.000,58.333 40.048 C 58.517 40.096,58.667 40.255,58.667 40.401 C 58.667 40.547,58.779 40.667,58.917 40.667 C 59.054 40.667,59.167 40.777,59.167 40.911 C 59.167 41.045,59.317 41.235,59.500 41.333 C 59.683 41.431,59.833 41.610,59.833 41.730 C 59.833 41.850,59.983 42.084,60.167 42.250 C 60.350 42.416,60.500 42.625,60.500 42.714 C 60.500 42.804,60.762 43.125,61.083 43.427 C 61.404 43.730,61.667 44.055,61.667 44.150 C 61.667 44.244,61.817 44.402,62.000 44.500 C 62.183 44.598,62.333 44.751,62.333 44.839 C 62.333 44.928,62.483 45.150,62.667 45.333 C 62.850 45.517,63.000 45.779,63.000 45.917 C 63.000 46.054,63.107 46.167,63.239 46.167 C 63.370 46.167,63.523 46.310,63.578 46.485 C 63.634 46.659,63.789 46.845,63.923 46.896 C 64.057 46.947,64.167 47.086,64.167 47.205 C 64.167 47.323,64.317 47.513,64.500 47.628 C 64.683 47.742,64.833 47.930,64.833 48.045 C 64.833 48.159,64.983 48.347,65.167 48.461 C 65.350 48.576,65.500 48.819,65.500 49.001 C 65.500 49.185,65.611 49.333,65.750 49.333 C 65.887 49.333,66.000 49.402,66.000 49.486 C 66.000 49.569,66.244 49.890,66.542 50.198 C 67.028 50.701,67.427 51.215,67.917 51.971 C 68.008 52.112,68.327 52.479,68.625 52.786 C 68.923 53.093,69.167 53.379,69.167 53.422 C 69.167 53.559,70.073 54.527,70.839 55.208 C 71.133 55.470,71.604 55.500,75.458 55.497 L 79.750 55.494 80.125 55.099 L 80.500 54.703 80.500 28.514 L 80.500 2.325 80.072 2.163 C 79.671 2.010,73.762 1.982,71.917 2.124 M93.792 2.115 C 93.302 2.243,93.343 54.677,93.833 55.167 C 94.286 55.619,118.934 55.700,119.106 55.250 C 119.159 55.112,119.307 55.000,119.434 55.000 C 119.695 55.000,120.088 54.633,120.583 53.927 C 120.767 53.666,121.048 53.334,121.208 53.189 C 121.369 53.044,121.500 52.830,121.500 52.713 C 121.500 52.596,121.620 52.500,121.766 52.500 C 121.912 52.500,122.070 52.350,122.118 52.167 C 122.166 51.983,122.268 51.833,122.344 51.833 C 122.420 51.833,122.580 51.661,122.699 51.450 C 123.275 50.435,123.601 50.002,123.792 50.001 C 123.906 50.000,124.000 49.890,124.000 49.756 C 124.000 49.622,124.150 49.431,124.333 49.333 C 124.517 49.235,124.667 49.083,124.667 48.994 C 124.667 48.839,124.787 48.677,125.500 47.875 C 125.683 47.669,125.833 47.450,125.833 47.388 C 125.833 47.327,125.957 47.139,126.109 46.971 C 126.376 46.676,126.010 46.667,114.710 46.667 C 104.218 46.667,103.025 46.640,102.934 46.403 C 102.879 46.258,102.833 36.254,102.833 24.172 L 102.833 2.206 102.458 2.105 C 102.030 1.990,94.235 1.999,93.792 2.115 M194.778 2.111 C 194.717 2.172,194.667 14.210,194.667 28.861 L 194.667 55.500 199.083 55.500 L 203.500 55.500 203.503 33.458 C 203.504 21.335,203.562 11.328,203.631 11.219 C 203.700 11.110,203.966 10.941,204.223 10.844 C 204.815 10.618,226.960 10.596,227.550 10.821 C 228.128 11.040,228.272 11.528,227.844 11.812 C 227.655 11.938,227.500 12.109,227.500 12.193 C 227.500 12.276,227.237 12.607,226.917 12.928 C 226.596 13.249,226.333 13.554,226.333 13.606 C 226.333 13.707,225.671 14.567,225.249 15.014 C 225.112 15.159,225.000 15.365,225.000 15.472 C 225.000 15.579,224.887 15.667,224.750 15.667 C 224.612 15.667,224.500 15.786,224.500 15.932 C 224.500 16.078,224.350 16.237,224.167 16.285 C 223.983 16.333,223.833 16.484,223.833 16.621 C 223.833 16.844,222.735 18.321,222.251 18.750 C 222.147 18.842,222.013 19.048,221.953 19.208 C 221.893 19.369,221.729 19.500,221.589 19.500 C 221.448 19.500,221.333 19.612,221.333 19.750 C 221.333 19.887,221.202 20.145,221.042 20.323 C 220.881 20.500,220.600 20.846,220.417 21.092 C 220.233 21.337,219.952 21.659,219.792 21.806 C 219.631 21.953,219.500 22.170,219.500 22.287 C 219.500 22.404,219.385 22.500,219.245 22.500 C 219.104 22.500,218.934 22.631,218.866 22.792 C 218.630 23.347,217.966 24.333,217.828 24.333 C 217.752 24.333,217.642 24.483,217.583 24.667 C 217.525 24.850,217.370 25.000,217.239 25.000 C 217.107 25.000,217.000 25.087,217.000 25.194 C 217.000 25.301,216.888 25.507,216.751 25.653 C 216.310 26.120,215.667 26.962,215.667 27.071 C 215.667 27.130,215.404 27.440,215.083 27.761 C 214.762 28.082,214.500 28.400,214.500 28.469 C 214.500 28.537,214.369 28.714,214.208 28.862 C 214.048 29.011,213.696 29.440,213.426 29.816 C 213.157 30.192,212.875 30.500,212.801 30.500 C 212.727 30.500,212.667 30.610,212.667 30.744 C 212.667 30.878,212.517 31.069,212.333 31.167 C 212.150 31.265,212.000 31.452,212.000 31.583 C 212.000 31.714,212.150 31.902,212.333 32.000 C 212.517 32.098,212.667 32.246,212.667 32.329 C 212.667 32.412,212.897 32.728,213.179 33.031 C 213.460 33.335,213.800 33.790,213.933 34.042 C 214.066 34.294,214.248 34.500,214.338 34.500 C 214.427 34.500,214.500 34.585,214.500 34.689 C 214.500 34.792,214.762 35.125,215.083 35.427 C 215.404 35.730,215.667 36.028,215.667 36.090 C 215.667 36.204,216.301 37.037,216.751 37.514 C 216.888 37.659,217.000 37.865,217.000 37.972 C 217.000 38.079,217.107 38.167,217.239 38.167 C 217.370 38.167,217.525 38.317,217.583 38.500 C 217.642 38.683,217.749 38.833,217.823 38.833 C 217.897 38.833,218.211 39.244,218.520 39.747 C 218.830 40.249,219.177 40.661,219.292 40.663 C 219.406 40.665,219.500 40.817,219.500 41.000 C 219.500 41.185,219.611 41.333,219.750 41.333 C 219.887 41.333,220.000 41.403,220.000 41.488 C 220.000 41.573,220.123 41.766,220.274 41.917 C 220.656 42.299,221.333 43.316,221.333 43.507 C 221.333 43.595,221.448 43.667,221.589 43.667 C 221.729 43.667,221.893 43.798,221.953 43.958 C 222.013 44.119,222.147 44.325,222.251 44.417 C 222.754 44.862,223.833 46.327,223.833 46.565 C 223.833 46.712,223.953 46.833,224.099 46.833 C 224.245 46.833,224.404 46.983,224.452 47.167 C 224.500 47.350,224.643 47.500,224.769 47.500 C 224.896 47.500,225.000 47.609,225.000 47.742 C 225.000 47.875,225.096 48.043,225.212 48.117 C 225.409 48.240,225.852 48.825,226.250 49.488 C 226.342 49.641,226.660 50.003,226.958 50.294 C 227.256 50.584,227.500 50.897,227.500 50.989 C 227.500 51.080,227.650 51.235,227.833 51.333 C 228.017 51.431,228.167 51.610,228.167 51.730 C 228.167 51.850,228.317 52.084,228.500 52.250 C 228.683 52.416,228.833 52.653,228.833 52.776 C 228.833 52.899,228.941 53.000,229.072 53.000 C 229.203 53.000,229.356 53.143,229.412 53.318 C 229.467 53.493,229.622 53.678,229.756 53.729 C 229.890 53.781,230.002 53.919,230.004 54.036 C 230.006 54.154,230.306 54.471,230.671 54.740 C 231.035 55.010,231.333 55.291,231.333 55.365 C 231.333 55.439,233.883 55.500,237.000 55.500 C 242.840 55.500,242.982 55.482,242.333 54.833 C 242.150 54.650,242.000 54.462,242.000 54.417 C 242.000 54.371,241.869 54.192,241.708 54.020 C 241.548 53.847,241.267 53.505,241.083 53.259 C 240.900 53.013,240.619 52.667,240.458 52.489 C 240.298 52.312,240.167 52.054,240.167 51.917 C 240.167 51.779,240.052 51.667,239.911 51.667 C 239.771 51.667,239.610 51.547,239.554 51.401 C 239.498 51.254,239.233 50.898,238.964 50.609 C 238.696 50.320,238.367 49.877,238.234 49.625 C 238.101 49.373,237.918 49.167,237.829 49.167 C 237.740 49.167,237.667 49.082,237.667 48.978 C 237.667 48.874,237.419 48.556,237.117 48.270 C 236.814 47.984,236.516 47.619,236.455 47.458 C 236.394 47.298,236.276 47.167,236.192 47.167 C 236.109 47.167,235.949 46.947,235.838 46.679 C 235.727 46.410,235.531 46.150,235.401 46.101 C 235.272 46.051,235.167 45.896,235.167 45.755 C 235.167 45.615,235.054 45.500,234.917 45.500 C 234.779 45.500,234.667 45.436,234.667 45.358 C 234.667 45.279,234.477 44.998,234.245 44.733 C 233.585 43.977,233.511 43.873,233.306 43.423 C 233.200 43.190,233.013 43.000,232.890 43.000 C 232.767 43.000,232.667 42.850,232.667 42.667 C 232.667 42.483,232.559 42.333,232.428 42.333 C 232.297 42.333,232.142 42.183,232.083 42.000 C 232.025 41.817,231.913 41.667,231.834 41.667 C 231.755 41.667,231.450 41.296,231.157 40.843 C 230.863 40.390,230.520 39.979,230.395 39.931 C 230.269 39.883,230.167 39.735,230.167 39.602 C 230.167 39.470,230.100 39.336,230.018 39.306 C 229.751 39.205,228.333 37.362,228.333 37.114 C 228.333 36.981,228.183 36.833,228.000 36.785 C 227.817 36.737,227.667 36.578,227.667 36.432 C 227.667 36.286,227.554 36.167,227.417 36.167 C 227.279 36.167,227.167 36.057,227.167 35.923 C 227.167 35.788,227.017 35.598,226.833 35.500 C 226.650 35.402,226.500 35.228,226.500 35.115 C 226.500 35.001,226.350 34.779,226.167 34.622 C 225.983 34.465,225.833 34.226,225.833 34.091 C 225.833 33.956,225.683 33.765,225.500 33.667 C 225.317 33.569,225.167 33.378,225.167 33.244 C 225.167 33.110,225.054 33.000,224.917 33.000 C 224.779 33.000,224.667 32.890,224.667 32.756 C 224.667 32.622,224.517 32.431,224.333 32.333 C 224.099 32.208,224.000 31.984,224.000 31.583 C 224.000 31.182,224.099 30.958,224.333 30.833 C 224.517 30.735,224.667 30.545,224.667 30.411 C 224.667 30.277,224.770 30.167,224.897 30.167 C 225.024 30.167,225.167 30.017,225.215 29.833 C 225.263 29.650,225.422 29.500,225.568 29.500 C 225.714 29.500,225.833 29.379,225.833 29.231 C 225.833 28.994,226.913 27.529,227.416 27.083 C 227.519 26.992,227.653 26.785,227.713 26.625 C 227.774 26.465,227.930 26.333,228.060 26.333 C 228.190 26.333,228.341 26.165,228.394 25.958 C 228.479 25.629,229.118 24.797,229.909 23.986 C 230.051 23.841,230.167 23.635,230.167 23.528 C 230.167 23.421,230.281 23.333,230.421 23.333 C 230.561 23.333,230.747 23.144,230.835 22.912 C 231.003 22.469,231.068 22.377,231.745 21.601 C 231.977 21.335,232.167 21.054,232.167 20.976 C 232.167 20.897,232.279 20.833,232.417 20.833 C 232.554 20.833,232.667 20.746,232.667 20.639 C 232.667 20.532,232.779 20.326,232.916 20.181 C 233.357 19.713,234.000 18.872,234.000 18.762 C 234.000 18.703,234.262 18.393,234.583 18.072 C 234.904 17.751,235.167 17.420,235.167 17.336 C 235.167 17.252,235.264 17.123,235.384 17.050 C 235.503 16.977,235.854 16.560,236.162 16.125 C 236.471 15.690,236.785 15.333,236.862 15.333 C 236.938 15.333,237.000 15.183,237.000 15.000 C 237.000 14.817,237.150 14.517,237.333 14.333 C 237.654 14.013,237.667 13.778,237.667 8.104 L 237.667 2.208 237.146 2.104 C 236.443 1.964,194.919 1.970,194.778 2.111 M252.542 2.104 C 252.322 2.199,252.221 54.313,252.438 55.125 L 252.539 55.500 256.868 55.500 C 260.945 55.500,261.222 55.481,261.621 55.167 C 261.854 54.983,262.147 54.833,262.272 54.833 C 262.398 54.833,262.500 54.746,262.500 54.639 C 262.500 54.532,262.612 54.326,262.749 54.181 C 263.294 53.604,263.833 52.859,263.833 52.684 C 263.833 52.583,263.937 52.500,264.064 52.500 C 264.191 52.500,264.334 52.350,264.382 52.167 C 264.430 51.983,264.588 51.833,264.734 51.833 C 264.889 51.833,265.000 51.694,265.000 51.500 C 265.000 51.317,265.104 51.167,265.232 51.167 C 265.359 51.167,265.508 50.998,265.561 50.792 C 265.615 50.585,265.912 50.143,266.222 49.809 C 266.531 49.475,266.830 49.081,266.887 48.934 C 266.943 48.787,267.104 48.667,267.245 48.667 C 267.385 48.667,267.500 48.595,267.500 48.507 C 267.500 48.233,268.423 46.952,269.042 46.368 C 269.202 46.216,269.333 45.997,269.333 45.880 C 269.333 45.762,269.441 45.667,269.572 45.667 C 269.703 45.667,269.858 45.517,269.917 45.333 C 269.975 45.150,270.091 45.000,270.176 45.000 C 270.260 45.000,270.439 44.737,270.573 44.417 C 270.707 44.096,270.890 43.833,270.980 43.833 C 271.070 43.833,271.192 43.683,271.250 43.500 C 271.308 43.317,271.463 43.167,271.595 43.167 C 271.726 43.167,271.833 43.071,271.833 42.954 C 271.833 42.837,271.965 42.614,272.125 42.460 C 272.589 42.013,272.893 41.635,273.416 40.856 C 273.685 40.456,274.001 40.092,274.119 40.047 C 274.237 40.001,274.335 39.879,274.338 39.774 C 274.341 39.669,274.573 39.358,274.854 39.083 C 275.135 38.808,275.472 38.377,275.604 38.125 C 275.735 37.873,275.915 37.667,276.004 37.667 C 276.094 37.667,276.167 37.573,276.167 37.458 C 276.167 36.942,277.365 36.253,277.651 36.605 C 277.797 36.785,278.048 36.983,278.208 37.045 C 278.369 37.106,278.500 37.271,278.500 37.411 C 278.500 37.552,278.577 37.667,278.670 37.667 C 278.764 37.667,278.933 37.870,279.045 38.119 C 279.158 38.367,279.494 38.815,279.792 39.113 C 280.090 39.411,280.333 39.715,280.333 39.788 C 280.333 39.860,280.483 40.013,280.667 40.128 C 280.850 40.242,281.000 40.411,281.000 40.501 C 281.000 40.592,281.150 40.817,281.333 41.000 C 281.517 41.183,281.667 41.446,281.667 41.583 C 281.667 41.721,281.779 41.833,281.917 41.833 C 282.054 41.833,282.167 41.943,282.167 42.077 C 282.167 42.212,282.317 42.402,282.500 42.500 C 282.683 42.598,282.833 42.741,282.833 42.818 C 282.833 42.895,283.099 43.248,283.424 43.602 C 283.748 43.957,284.056 44.416,284.108 44.623 C 284.160 44.831,284.307 45.000,284.435 45.000 C 284.562 45.000,284.667 45.110,284.667 45.244 C 284.667 45.378,284.817 45.569,285.000 45.667 C 285.183 45.765,285.333 45.955,285.333 46.089 C 285.333 46.223,285.427 46.334,285.542 46.334 C 285.656 46.335,285.879 46.541,286.037 46.793 C 286.670 47.801,286.758 47.922,286.958 48.050 C 287.073 48.123,287.167 48.287,287.167 48.414 C 287.167 48.540,287.317 48.692,287.500 48.750 C 287.683 48.808,287.833 48.926,287.833 49.011 C 287.833 49.097,287.951 49.298,288.095 49.458 C 288.758 50.195,289.166 50.767,289.166 50.958 C 289.167 51.073,289.279 51.167,289.417 51.167 C 289.556 51.167,289.667 51.315,289.667 51.500 C 289.667 51.694,289.778 51.833,289.932 51.833 C 290.078 51.833,290.237 51.983,290.285 52.167 C 290.333 52.350,290.429 52.500,290.499 52.500 C 290.569 52.500,290.910 52.912,291.257 53.417 C 291.605 53.921,291.951 54.333,292.028 54.333 C 292.104 54.333,292.167 54.446,292.167 54.583 C 292.167 54.721,292.279 54.833,292.417 54.833 C 292.554 54.833,292.817 54.983,293.000 55.167 C 293.320 55.486,293.556 55.500,298.810 55.500 L 304.287 55.500 304.209 55.093 C 304.167 54.870,303.990 54.558,303.816 54.401 C 303.642 54.244,303.500 53.985,303.500 53.827 C 303.500 53.669,303.350 53.500,303.167 53.452 C 302.983 53.404,302.833 53.245,302.833 53.099 C 302.833 52.953,302.726 52.833,302.595 52.833 C 302.463 52.833,302.310 52.690,302.255 52.515 C 302.199 52.341,302.044 52.155,301.910 52.104 C 301.776 52.053,301.667 51.907,301.667 51.781 C 301.667 51.655,301.517 51.416,301.333 51.250 C 301.150 51.084,301.000 50.847,301.000 50.724 C 301.000 50.601,300.893 50.500,300.761 50.500 C 300.630 50.500,300.477 50.357,300.422 50.182 C 300.366 50.007,300.211 49.822,300.077 49.771 C 299.943 49.719,299.833 49.603,299.833 49.513 C 299.833 49.422,299.665 49.171,299.458 48.953 C 298.789 48.248,298.500 47.834,298.500 47.581 C 298.500 47.445,298.385 47.333,298.245 47.333 C 298.104 47.333,297.940 47.204,297.879 47.046 C 297.819 46.889,297.578 46.570,297.343 46.338 C 296.966 45.965,296.659 45.567,296.083 44.703 C 295.992 44.566,295.673 44.204,295.375 43.899 C 295.077 43.594,294.833 43.292,294.833 43.228 C 294.833 43.164,294.721 42.993,294.584 42.847 C 294.040 42.270,293.500 41.525,293.500 41.351 C 293.500 41.250,293.387 41.167,293.250 41.167 C 293.112 41.167,293.000 41.057,293.000 40.923 C 293.000 40.788,292.850 40.598,292.667 40.500 C 292.483 40.402,292.333 40.249,292.333 40.161 C 292.333 40.072,292.218 39.869,292.077 39.708 C 291.460 39.005,291.000 38.355,291.000 38.184 C 291.000 38.083,290.887 38.000,290.750 38.000 C 290.612 38.000,290.500 37.890,290.500 37.756 C 290.500 37.622,290.350 37.431,290.167 37.333 C 289.983 37.235,289.833 37.083,289.833 36.994 C 289.833 36.906,289.702 36.692,289.542 36.520 C 289.381 36.347,289.100 36.005,288.917 35.759 C 288.733 35.514,288.452 35.188,288.292 35.036 C 288.131 34.884,288.000 34.703,288.000 34.635 C 288.000 34.567,287.756 34.264,287.458 33.962 C 287.160 33.659,286.692 33.076,286.417 32.664 C 286.142 32.253,285.824 31.857,285.709 31.783 C 285.594 31.710,285.500 31.541,285.500 31.408 C 285.500 31.275,285.380 31.167,285.234 31.167 C 285.088 31.167,284.930 31.017,284.882 30.833 C 284.834 30.650,284.741 30.500,284.675 30.500 C 284.610 30.500,284.309 30.119,284.008 29.654 C 283.706 29.188,283.356 28.768,283.230 28.719 C 283.103 28.671,283.000 28.529,283.000 28.405 C 283.000 28.280,282.850 28.098,282.667 28.000 C 282.483 27.902,282.333 27.749,282.333 27.661 C 282.333 27.572,282.183 27.331,282.000 27.125 C 281.261 26.294,281.167 26.157,281.167 25.917 C 281.167 25.779,281.052 25.667,280.911 25.667 C 280.771 25.667,280.610 25.547,280.554 25.401 C 280.498 25.254,280.233 24.898,279.964 24.609 C 279.696 24.320,279.367 23.877,279.234 23.625 C 279.101 23.373,278.918 23.167,278.829 23.167 C 278.740 23.167,278.667 23.057,278.667 22.923 C 278.667 22.788,278.517 22.598,278.333 22.500 C 278.150 22.402,278.000 22.212,278.000 22.077 C 278.000 21.943,277.887 21.833,277.750 21.833 C 277.612 21.833,277.500 21.750,277.500 21.649 C 277.500 21.475,276.960 20.730,276.416 20.153 C 276.279 20.007,276.167 19.845,276.167 19.791 C 276.167 19.737,275.885 19.394,275.542 19.029 C 274.749 18.185,274.594 17.989,274.332 17.490 C 274.214 17.266,274.016 17.023,273.892 16.950 C 273.768 16.877,273.667 16.708,273.667 16.575 C 273.667 16.442,273.547 16.333,273.401 16.333 C 273.255 16.333,273.096 16.183,273.048 16.000 C 273.000 15.817,272.902 15.667,272.830 15.667 C 272.758 15.667,272.425 15.254,272.091 14.750 C 271.756 14.246,271.411 13.833,271.324 13.833 C 271.238 13.833,271.167 13.748,271.167 13.645 C 271.167 13.541,270.904 13.208,270.583 12.906 C 270.262 12.603,270.000 12.287,270.000 12.204 C 270.000 12.120,269.850 11.916,269.667 11.750 C 269.483 11.584,269.333 11.350,269.333 11.230 C 269.333 11.110,269.183 10.931,269.000 10.833 C 268.817 10.735,268.667 10.578,268.667 10.483 C 268.667 10.388,268.404 10.063,268.083 9.761 C 267.762 9.458,267.500 9.142,267.500 9.059 C 267.500 8.976,267.350 8.779,267.167 8.622 C 266.983 8.465,266.833 8.226,266.833 8.091 C 266.833 7.956,266.683 7.765,266.500 7.667 C 266.317 7.569,266.167 7.378,266.167 7.244 C 266.167 7.110,266.054 7.000,265.917 7.000 C 265.779 7.000,265.667 6.890,265.667 6.756 C 265.667 6.622,265.517 6.431,265.333 6.333 C 265.150 6.235,265.000 6.045,265.000 5.911 C 265.000 5.777,264.923 5.667,264.830 5.667 C 264.736 5.667,264.567 5.461,264.455 5.209 C 264.342 4.958,264.006 4.527,263.708 4.252 C 263.410 3.977,263.167 3.701,263.167 3.639 C 263.167 3.577,262.848 3.202,262.458 2.805 L 261.750 2.083 257.250 2.049 C 254.775 2.030,252.656 2.055,252.542 2.104 M298.000 2.156 C 297.585 2.430,297.626 28.603,298.042 28.907 C 298.202 29.024,298.333 29.181,298.333 29.254 C 298.333 29.328,298.445 29.507,298.582 29.653 C 299.127 30.230,299.667 30.975,299.667 31.149 C 299.667 31.250,299.779 31.333,299.917 31.333 C 300.054 31.333,300.167 31.443,300.167 31.577 C 300.167 31.712,300.317 31.902,300.500 32.000 C 300.683 32.098,300.833 32.251,300.833 32.339 C 300.833 32.428,300.949 32.631,301.089 32.792 C 301.707 33.495,302.167 34.145,302.167 34.316 C 302.167 34.417,302.279 34.500,302.417 34.500 C 302.554 34.500,302.667 34.610,302.667 34.744 C 302.667 34.878,302.817 35.069,303.000 35.167 C 303.183 35.265,303.333 35.417,303.333 35.506 C 303.333 35.594,303.465 35.812,303.625 35.989 C 303.785 36.167,304.067 36.513,304.250 36.758 C 304.433 37.004,304.715 37.325,304.875 37.473 C 305.035 37.620,305.167 37.837,305.167 37.954 C 305.167 38.071,305.282 38.167,305.422 38.167 C 305.562 38.167,305.725 38.298,305.784 38.458 C 305.842 38.619,306.065 38.929,306.278 39.148 L 306.667 39.545 306.667 28.947 C 306.667 17.324,306.661 17.401,307.571 17.596 C 308.234 17.738,308.333 17.803,308.333 18.093 C 308.333 18.225,308.441 18.333,308.572 18.333 C 308.703 18.333,308.858 18.483,308.917 18.667 C 308.975 18.850,309.094 19.000,309.182 19.000 C 309.270 19.000,309.413 19.188,309.500 19.417 C 309.587 19.646,309.734 19.833,309.826 19.833 C 309.918 19.833,310.041 20.023,310.099 20.254 C 310.157 20.486,310.346 20.751,310.519 20.844 C 310.692 20.936,310.833 21.122,310.833 21.256 C 310.833 21.390,310.946 21.500,311.083 21.500 C 311.221 21.500,311.333 21.561,311.333 21.636 C 311.333 21.711,311.598 22.068,311.921 22.428 C 312.244 22.788,312.553 23.252,312.606 23.458 C 312.659 23.665,312.810 23.833,312.940 23.833 C 313.070 23.833,313.225 23.965,313.284 24.125 C 313.343 24.285,313.491 24.477,313.612 24.550 C 313.734 24.623,313.833 24.745,313.833 24.821 C 313.833 24.896,314.133 25.286,314.500 25.687 C 314.867 26.088,315.167 26.548,315.167 26.708 C 315.167 26.869,315.282 27.000,315.422 27.000 C 315.562 27.000,315.727 27.129,315.787 27.287 C 315.848 27.445,316.089 27.763,316.324 27.995 C 316.701 28.368,317.008 28.766,317.583 29.630 C 317.675 29.768,317.994 30.130,318.292 30.435 C 318.590 30.739,318.833 31.041,318.833 31.105 C 318.833 31.170,318.945 31.341,319.082 31.486 C 319.627 32.063,320.167 32.808,320.167 32.982 C 320.167 33.084,320.279 33.167,320.417 33.167 C 320.554 33.167,320.667 33.277,320.667 33.411 C 320.667 33.545,320.817 33.735,321.000 33.833 C 321.183 33.931,321.333 34.104,321.333 34.216 C 321.333 34.328,321.483 34.513,321.667 34.628 C 321.850 34.742,322.000 34.914,322.000 35.008 C 322.000 35.103,322.150 35.342,322.333 35.538 C 322.517 35.735,322.667 35.995,322.667 36.115 C 322.667 36.235,322.779 36.333,322.917 36.333 C 323.054 36.333,323.167 36.443,323.167 36.577 C 323.167 36.712,323.317 36.902,323.500 37.000 C 323.683 37.098,323.833 37.288,323.833 37.423 C 323.833 37.557,323.946 37.667,324.083 37.667 C 324.221 37.667,324.333 37.766,324.333 37.888 C 324.333 38.009,324.521 38.285,324.750 38.500 C 324.979 38.715,325.167 38.983,325.167 39.095 C 325.167 39.206,325.279 39.341,325.417 39.394 C 325.554 39.446,325.667 39.567,325.667 39.662 C 325.667 39.757,325.914 40.078,326.216 40.375 C 326.518 40.673,326.986 41.254,327.257 41.667 C 327.528 42.079,327.843 42.477,327.958 42.550 C 328.073 42.623,328.167 42.783,328.167 42.906 C 328.167 43.028,328.317 43.167,328.500 43.215 C 328.683 43.263,328.833 43.422,328.833 43.568 C 328.833 43.714,328.896 43.833,328.972 43.833 C 329.048 43.833,329.357 44.214,329.659 44.680 C 329.961 45.145,330.311 45.566,330.437 45.614 C 330.563 45.663,330.667 45.804,330.667 45.929 C 330.667 46.053,330.817 46.235,331.000 46.333 C 331.183 46.431,331.333 46.580,331.333 46.663 C 331.333 46.747,331.595 47.100,331.916 47.449 C 332.236 47.798,332.499 48.215,332.499 48.375 C 332.500 48.535,332.620 48.667,332.766 48.667 C 332.912 48.667,333.070 48.817,333.118 49.000 C 333.166 49.183,333.260 49.333,333.326 49.333 C 333.486 49.333,335.000 51.288,335.000 51.494 C 335.000 51.583,335.150 51.735,335.333 51.833 C 335.517 51.931,335.667 52.122,335.667 52.256 C 335.667 52.390,335.774 52.500,335.905 52.500 C 336.037 52.500,336.190 52.643,336.245 52.818 C 336.301 52.993,336.456 53.178,336.590 53.229 C 336.724 53.281,336.833 53.426,336.833 53.552 C 336.833 53.678,336.983 53.917,337.167 54.083 C 337.350 54.249,337.500 54.486,337.500 54.609 C 337.500 54.732,337.602 54.833,337.728 54.833 C 337.853 54.833,338.146 54.983,338.379 55.167 C 338.778 55.481,339.055 55.500,343.148 55.500 L 347.494 55.500 347.584 55.125 C 347.634 54.919,347.654 42.900,347.629 28.417 L 347.583 2.083 343.500 2.036 C 341.254 2.011,339.248 2.031,339.042 2.081 L 338.668 2.173 338.626 20.961 L 338.583 39.750 338.110 39.804 C 337.578 39.865,337.000 39.443,337.000 38.994 C 337.000 38.835,336.850 38.666,336.667 38.618 C 336.483 38.570,336.333 38.412,336.333 38.266 C 336.333 38.120,336.221 38.000,336.083 38.000 C 335.946 38.000,335.833 37.890,335.833 37.756 C 335.833 37.622,335.683 37.431,335.500 37.333 C 335.317 37.235,335.167 37.045,335.167 36.911 C 335.167 36.777,335.090 36.667,334.996 36.667 C 334.903 36.667,334.734 36.463,334.621 36.215 C 334.509 35.966,334.173 35.519,333.875 35.220 C 333.577 34.922,333.333 34.603,333.333 34.511 C 333.333 34.420,333.183 34.265,333.000 34.167 C 332.817 34.069,332.667 33.913,332.667 33.821 C 332.667 33.728,332.517 33.492,332.333 33.295 C 332.150 33.098,332.000 32.839,332.000 32.719 C 332.000 32.598,331.887 32.500,331.750 32.500 C 331.612 32.500,331.500 32.390,331.500 32.256 C 331.500 32.122,331.350 31.931,331.167 31.833 C 330.983 31.735,330.833 31.592,330.833 31.515 C 330.833 31.438,330.568 31.085,330.243 30.731 C 329.918 30.376,329.610 29.917,329.558 29.710 C 329.506 29.503,329.359 29.333,329.232 29.333 C 329.104 29.333,329.000 29.223,329.000 29.089 C 329.000 28.955,328.850 28.765,328.667 28.667 C 328.483 28.569,328.333 28.378,328.333 28.244 C 328.333 28.110,328.240 28.000,328.125 27.999 C 328.010 27.998,327.788 27.792,327.630 27.541 C 326.997 26.532,326.909 26.412,326.708 26.283 C 326.594 26.210,326.500 26.041,326.500 25.908 C 326.500 25.775,326.385 25.667,326.245 25.667 C 326.104 25.667,325.941 25.541,325.883 25.388 C 325.824 25.234,325.673 24.991,325.548 24.846 C 324.933 24.134,324.500 23.517,324.500 23.351 C 324.500 23.250,324.387 23.167,324.250 23.167 C 324.112 23.167,324.000 23.025,324.000 22.853 C 324.000 22.679,323.851 22.500,323.667 22.452 C 323.483 22.404,323.333 22.245,323.333 22.099 C 323.333 21.953,323.271 21.833,323.195 21.833 C 323.119 21.833,322.809 21.452,322.508 20.987 C 322.206 20.521,321.856 20.101,321.730 20.052 C 321.603 20.004,321.500 19.860,321.500 19.732 C 321.500 19.604,321.437 19.500,321.360 19.500 C 321.146 19.500,319.667 17.534,319.667 17.250 C 319.667 17.112,319.547 17.000,319.401 17.000 C 319.255 17.000,319.096 16.850,319.048 16.667 C 319.000 16.483,318.862 16.333,318.742 16.333 C 318.621 16.333,318.477 16.190,318.422 16.015 C 318.366 15.841,318.211 15.655,318.077 15.604 C 317.943 15.553,317.833 15.407,317.833 15.281 C 317.833 15.155,317.683 14.916,317.500 14.750 C 317.317 14.584,317.167 14.350,317.167 14.230 C 317.167 14.110,317.017 13.931,316.833 13.833 C 316.650 13.735,316.500 13.545,316.500 13.411 C 316.500 13.277,316.387 13.167,316.250 13.167 C 316.112 13.167,316.000 13.097,316.000 13.012 C 316.000 12.927,315.877 12.734,315.726 12.583 C 315.344 12.201,314.667 11.184,314.667 10.993 C 314.667 10.905,314.547 10.833,314.401 10.833 C 314.255 10.833,314.096 10.683,314.048 10.500 C 314.000 10.317,313.910 10.167,313.848 10.167 C 313.786 10.167,313.439 9.773,313.076 9.292 C 312.713 8.810,312.360 8.392,312.292 8.361 C 312.223 8.331,312.167 8.162,312.167 7.986 C 312.167 7.810,312.052 7.667,311.911 7.667 C 311.771 7.667,311.610 7.546,311.554 7.399 C 311.497 7.252,311.200 6.858,310.893 6.524 C 310.586 6.190,310.335 5.824,310.334 5.710 C 310.334 5.596,310.183 5.409,310.000 5.295 C 309.817 5.180,309.667 5.032,309.667 4.965 C 309.667 4.899,309.404 4.582,309.083 4.261 C 308.762 3.940,308.498 3.619,308.495 3.547 C 308.492 3.475,308.190 3.117,307.824 2.750 L 307.158 2.083 302.704 2.037 C 299.965 2.009,298.154 2.055,298.000 2.156 M356.281 2.107 C 356.218 2.171,356.167 4.049,356.167 6.282 L 356.167 10.342 356.594 10.504 C 356.846 10.600,359.807 10.668,363.803 10.669 C 367.784 10.671,370.687 10.737,370.833 10.830 C 371.053 10.968,371.094 13.661,371.167 32.869 C 371.242 52.608,371.276 54.787,371.518 55.128 L 371.785 55.506 376.101 55.461 L 380.417 55.417 380.500 33.174 L 380.583 10.932 381.000 10.816 C 381.229 10.752,385.242 10.690,389.917 10.677 C 396.949 10.659,398.489 10.614,398.833 10.417 C 399.159 10.231,399.185 10.177,398.953 10.173 C 398.790 10.169,398.610 10.047,398.554 9.901 C 398.498 9.754,398.233 9.398,397.964 9.109 C 397.696 8.820,397.367 8.377,397.234 8.125 C 397.101 7.873,396.918 7.667,396.829 7.667 C 396.740 7.667,396.667 7.517,396.667 7.333 C 396.667 7.139,396.556 7.000,396.401 7.000 C 396.255 7.000,396.096 6.850,396.048 6.667 C 396.000 6.483,395.857 6.333,395.731 6.333 C 395.604 6.333,395.500 6.250,395.500 6.149 C 395.500 5.975,394.960 5.230,394.416 4.653 C 394.279 4.507,394.167 4.349,394.167 4.300 C 394.167 4.251,393.708 3.732,393.148 3.147 L 392.129 2.083 374.263 2.038 C 364.436 2.013,356.344 2.044,356.281 2.107 M158.226 9.417 C 158.402 9.592,158.831 9.667,159.670 9.667 C 160.612 9.667,160.954 9.737,161.288 10.000 C 161.521 10.183,161.955 10.333,162.252 10.333 C 162.549 10.333,162.886 10.446,163.000 10.583 C 163.114 10.721,163.376 10.833,163.581 10.833 C 163.787 10.833,164.146 10.983,164.379 11.167 C 164.612 11.350,164.919 11.500,165.062 11.500 C 165.205 11.500,165.402 11.650,165.500 11.833 C 165.603 12.026,165.849 12.167,166.083 12.167 C 166.318 12.167,166.563 12.307,166.667 12.500 C 166.765 12.683,166.955 12.833,167.089 12.833 C 167.223 12.833,167.333 12.938,167.333 13.065 C 167.333 13.193,167.502 13.341,167.708 13.394 C 168.346 13.558,171.000 16.307,171.000 16.803 C 171.000 16.905,171.150 17.069,171.333 17.167 C 171.517 17.265,171.667 17.417,171.667 17.506 C 171.667 17.594,171.817 17.817,172.000 18.000 C 172.183 18.183,172.333 18.475,172.333 18.649 C 172.333 18.822,172.439 19.005,172.568 19.054 C 172.696 19.104,172.851 19.369,172.912 19.644 C 172.972 19.919,173.129 20.233,173.261 20.342 C 173.392 20.451,173.500 20.726,173.500 20.952 C 173.500 21.179,173.650 21.555,173.833 21.788 C 174.062 22.078,174.167 22.464,174.167 23.014 C 174.167 23.605,174.244 23.860,174.458 23.980 C 175.064 24.319,174.937 33.500,174.327 33.500 C 174.239 33.500,174.167 33.863,174.167 34.308 C 174.167 34.903,174.079 35.194,173.833 35.417 C 173.650 35.583,173.500 35.923,173.500 36.172 C 173.500 36.422,173.387 36.719,173.250 36.833 C 173.112 36.947,173.000 37.172,173.000 37.331 C 173.000 37.491,172.850 37.812,172.667 38.045 C 172.483 38.279,172.333 38.584,172.333 38.725 C 172.333 38.866,172.201 39.079,172.039 39.199 C 171.877 39.319,171.653 39.604,171.540 39.833 C 171.115 40.700,169.680 42.333,169.345 42.333 C 169.247 42.333,169.167 42.453,169.167 42.599 C 169.167 42.745,169.017 42.904,168.833 42.952 C 168.650 43.000,168.500 43.150,168.500 43.285 C 168.500 43.420,168.350 43.570,168.167 43.618 C 167.983 43.666,167.833 43.792,167.833 43.897 C 167.833 44.083,167.633 44.215,166.562 44.735 C 166.275 44.874,165.996 45.103,165.942 45.244 C 165.888 45.385,165.722 45.500,165.573 45.500 C 165.424 45.500,165.112 45.650,164.879 45.833 C 164.646 46.017,164.324 46.167,164.165 46.167 C 164.005 46.167,163.781 46.279,163.667 46.417 C 163.553 46.554,163.243 46.667,162.980 46.667 C 162.716 46.667,162.350 46.817,162.167 47.000 C 161.920 47.247,161.611 47.333,160.977 47.333 C 160.353 47.333,160.062 47.413,159.907 47.625 C 159.715 47.887,159.335 47.917,156.198 47.917 C 153.102 47.917,152.665 47.883,152.379 47.625 C 152.164 47.430,151.784 47.333,151.232 47.333 C 150.614 47.333,150.336 47.250,150.122 47.000 C 149.941 46.788,149.630 46.667,149.272 46.667 C 148.962 46.667,148.618 46.559,148.509 46.427 C 148.400 46.296,148.096 46.141,147.833 46.083 C 147.571 46.026,147.267 45.871,147.158 45.739 C 147.049 45.608,146.859 45.500,146.735 45.500 C 146.612 45.500,146.431 45.350,146.333 45.167 C 146.230 44.974,145.984 44.833,145.750 44.833 C 145.516 44.833,145.270 44.693,145.167 44.500 C 145.069 44.317,144.878 44.167,144.744 44.167 C 144.610 44.167,144.500 44.063,144.500 43.936 C 144.500 43.809,144.350 43.666,144.167 43.618 C 143.983 43.570,143.833 43.412,143.833 43.266 C 143.833 43.120,143.748 43.000,143.645 43.000 C 143.399 43.000,142.000 41.601,142.000 41.355 C 142.000 41.252,141.885 41.167,141.745 41.167 C 141.604 41.167,141.441 41.035,141.382 40.875 C 141.323 40.715,141.176 40.523,141.054 40.450 C 140.933 40.377,140.833 40.220,140.833 40.101 C 140.833 39.982,140.683 39.749,140.500 39.583 C 140.317 39.417,140.167 39.160,140.167 39.011 C 140.167 38.862,140.017 38.612,139.833 38.455 C 139.650 38.298,139.500 38.019,139.500 37.835 C 139.500 37.651,139.350 37.350,139.167 37.167 C 138.983 36.983,138.833 36.655,138.833 36.437 C 138.833 36.219,138.727 35.953,138.598 35.845 C 138.468 35.738,138.312 35.282,138.250 34.833 C 138.188 34.384,138.032 33.929,137.902 33.821 C 137.736 33.683,137.665 33.230,137.661 32.271 C 137.658 31.345,137.579 30.814,137.411 30.593 C 137.059 30.127,137.063 26.960,137.417 26.667 C 137.602 26.513,137.667 26.102,137.667 25.075 C 137.667 24.133,137.739 23.618,137.892 23.465 C 138.016 23.341,138.172 22.881,138.237 22.443 C 138.304 21.998,138.462 21.607,138.595 21.556 C 138.726 21.505,138.833 21.257,138.833 21.005 C 138.833 20.752,138.983 20.354,139.167 20.121 C 139.350 19.888,139.500 19.578,139.500 19.432 C 139.500 19.286,139.650 19.017,139.833 18.833 C 140.017 18.650,140.167 18.392,140.167 18.259 C 140.167 18.127,140.431 17.733,140.754 17.384 C 141.077 17.035,141.385 16.581,141.439 16.375 C 141.492 16.169,141.641 16.000,141.768 16.000 C 141.896 16.000,142.000 15.920,142.000 15.822 C 142.000 15.568,143.965 13.674,144.842 13.084 C 145.250 12.809,145.643 12.490,145.717 12.375 C 145.790 12.261,145.959 12.167,146.092 12.167 C 146.225 12.167,146.483 12.017,146.667 11.833 C 146.850 11.650,147.142 11.500,147.316 11.500 C 147.489 11.500,147.673 11.392,147.723 11.259 C 147.774 11.127,148.080 10.969,148.402 10.908 C 148.724 10.848,149.075 10.694,149.181 10.566 C 149.287 10.438,149.634 10.333,149.952 10.333 C 150.278 10.333,150.716 10.188,150.955 10.000 C 151.292 9.735,151.631 9.667,152.618 9.667 C 153.497 9.667,153.930 9.594,154.107 9.417 C 154.299 9.225,154.780 9.167,156.167 9.167 C 157.553 9.167,158.035 9.225,158.226 9.417 M70.959 28.708 L 70.917 40.917 70.541 40.970 C 70.316 41.002,70.125 40.919,70.065 40.762 C 70.010 40.618,69.858 40.500,69.727 40.500 C 69.596 40.500,69.441 40.374,69.383 40.221 C 69.324 40.068,69.173 39.824,69.048 39.679 C 68.433 38.967,68.000 38.350,68.000 38.184 C 68.000 38.083,67.887 38.000,67.750 38.000 C 67.612 38.000,67.500 37.890,67.500 37.756 C 67.500 37.622,67.350 37.431,67.167 37.333 C 66.983 37.235,66.833 37.045,66.833 36.911 C 66.833 36.777,66.721 36.667,66.583 36.667 C 66.446 36.667,66.333 36.584,66.333 36.482 C 66.333 36.308,65.794 35.563,65.249 34.986 C 65.112 34.841,65.000 34.675,65.000 34.617 C 65.000 34.559,64.756 34.264,64.458 33.962 C 64.160 33.659,63.692 33.076,63.417 32.664 C 63.142 32.253,62.824 31.857,62.709 31.783 C 62.594 31.710,62.500 31.541,62.500 31.408 C 62.500 31.275,62.380 31.167,62.234 31.167 C 62.088 31.167,61.930 31.017,61.882 30.833 C 61.834 30.650,61.742 30.500,61.677 30.500 C 61.050 30.500,60.344 27.947,60.910 27.729 C 61.044 27.678,61.199 27.493,61.255 27.318 C 61.310 27.143,61.463 27.000,61.595 27.000 C 61.726 27.000,61.833 26.887,61.833 26.750 C 61.833 26.613,61.983 26.350,62.167 26.167 C 62.350 25.983,62.500 25.759,62.500 25.668 C 62.500 25.577,62.650 25.409,62.833 25.295 C 63.017 25.180,63.167 25.010,63.167 24.917 C 63.167 24.824,63.410 24.523,63.708 24.248 C 64.006 23.973,64.342 23.542,64.455 23.291 C 64.567 23.039,64.736 22.833,64.830 22.833 C 64.923 22.833,65.000 22.723,65.000 22.589 C 65.000 22.455,65.150 22.265,65.333 22.167 C 65.517 22.069,65.667 21.878,65.667 21.744 C 65.667 21.610,65.779 21.500,65.917 21.500 C 66.054 21.500,66.167 21.390,66.167 21.256 C 66.167 21.122,66.317 20.931,66.500 20.833 C 66.683 20.735,66.833 20.557,66.833 20.437 C 66.833 20.317,66.983 20.083,67.167 19.917 C 67.350 19.751,67.500 19.542,67.500 19.452 C 67.500 19.363,67.748 19.056,68.050 18.770 C 68.353 18.484,68.650 18.119,68.711 17.958 C 68.773 17.798,68.938 17.667,69.078 17.667 C 69.218 17.667,69.333 17.541,69.333 17.388 C 69.333 16.912,69.849 16.500,70.444 16.500 L 71.002 16.500 70.959 28.708 M262.917 16.833 C 262.975 17.017,263.083 17.167,263.157 17.167 C 263.230 17.167,263.544 17.578,263.854 18.080 C 264.163 18.582,264.510 18.995,264.625 18.997 C 264.740 18.998,264.833 19.150,264.833 19.333 C 264.833 19.519,264.944 19.667,265.083 19.667 C 265.221 19.667,265.333 19.736,265.333 19.821 C 265.333 19.907,265.457 20.099,265.607 20.250 C 265.990 20.633,266.667 21.649,266.667 21.841 C 266.667 21.928,266.782 22.000,266.922 22.000 C 267.062 22.000,267.223 22.120,267.279 22.266 C 267.335 22.412,267.601 22.768,267.869 23.058 C 268.138 23.347,268.466 23.790,268.600 24.042 C 268.733 24.294,268.915 24.500,269.004 24.500 C 269.094 24.500,269.167 24.650,269.167 24.833 C 269.167 25.027,269.278 25.167,269.432 25.167 C 269.578 25.167,269.737 25.317,269.785 25.500 C 269.833 25.683,269.976 25.833,270.103 25.833 C 270.230 25.833,270.333 25.948,270.333 26.089 C 270.333 26.229,270.439 26.384,270.568 26.434 C 270.697 26.483,270.892 26.738,271.000 27.000 C 271.108 27.262,271.303 27.517,271.432 27.566 C 271.561 27.616,271.667 27.784,271.667 27.940 C 271.667 28.096,271.783 28.352,271.925 28.509 C 272.157 28.766,272.157 28.819,271.925 29.052 C 271.783 29.193,271.667 29.389,271.667 29.487 C 271.667 29.584,271.517 29.758,271.333 29.872 C 271.150 29.987,271.000 30.140,271.000 30.212 C 271.000 30.285,270.756 30.589,270.458 30.887 C 270.160 31.185,269.825 31.633,269.712 31.881 C 269.599 32.130,269.431 32.333,269.337 32.333 C 269.243 32.333,269.167 32.443,269.167 32.577 C 269.167 32.712,269.017 32.902,268.833 33.000 C 268.650 33.098,268.500 33.288,268.500 33.423 C 268.500 33.557,268.387 33.667,268.250 33.667 C 268.112 33.667,268.000 33.777,268.000 33.911 C 268.000 34.045,267.850 34.235,267.667 34.333 C 267.483 34.431,267.333 34.622,267.333 34.757 C 267.333 34.893,267.183 35.132,267.000 35.289 C 266.817 35.446,266.667 35.642,266.667 35.726 C 266.667 35.809,266.404 36.125,266.083 36.427 C 265.762 36.730,265.500 37.055,265.500 37.150 C 265.500 37.244,265.350 37.402,265.167 37.500 C 264.983 37.598,264.833 37.777,264.833 37.897 C 264.833 38.017,264.683 38.251,264.500 38.417 C 264.317 38.583,264.167 38.819,264.167 38.942 C 264.167 39.066,264.059 39.167,263.928 39.167 C 263.797 39.167,263.644 39.310,263.588 39.485 C 263.533 39.659,263.378 39.845,263.244 39.896 C 263.110 39.947,263.000 40.093,263.000 40.219 C 263.000 40.616,261.908 41.103,261.596 40.844 C 261.322 40.616,261.173 16.882,261.444 16.611 C 261.719 16.336,262.811 16.501,262.917 16.833 " stroke="none" fill="#000000" fill-rule="evenodd"></path></g></svg>